<?xml version="1.0" encoding="UTF-8"?>
<svg width="205.94mm" height="187.44mm" version="1.1" viewBox="0 0 205.94 187.44" xmlns="http://www.w3.org/2000/svg" xmlns:cc="http://creativecommons.org/ns#" xmlns:dc="http://purl.org/dc/elements/1.1/" xmlns:rdf="http://www.w3.org/1999/02/22-rdf-syntax-ns#">
 <metadata>
  <rdf:RDF>
   <cc:Work rdf:about="">
    <dc:format>image/svg+xml</dc:format>
    <dc:type rdf:resource="http://purl.org/dc/dcmitype/StillImage"/>
    <dc:title/>
   </cc:Work>
  </rdf:RDF>
 </metadata>
 <g transform="translate(-1.9983 -9.1956)">
  <g transform="matrix(1.225 0 0 1.225 -28.768 -31.525)" fill="#8c8c8c" stroke-width="1.3023">
   <path d="m141.23 33.241v23.404h11.702c5e-3 18.754-5.1108 45.875 14.821 53.104-19.932 7.2289-14.816 34.349-14.821 53.103h-11.702v23.404h12.076c32.47-0.69728 27.93-23.123 28.23-38.011 0.4064-21.362 0.19502-23.294 2.6004-25.699 1.4302-1.4302 9.0956-2.6179 9.0956-2.6179v-20.358s-7.6654-1.1877-9.0956-2.6179c-2.4053-2.4053-2.194-4.3377-2.6004-25.699-0.30036-14.888 4.2396-37.314-28.23-38.011z"/>
   <path d="m83.818 98.696h50.708v22.104h-50.708z"/>
   <path d="m77.118 33.241v23.404h-11.702c-0.0049 18.754 5.1108 45.875-14.821 53.104 19.932 7.2289 14.816 34.349 14.821 53.103h11.702v23.404h-12.076c-32.47-0.69728-27.93-23.123-28.23-38.011-0.4064-21.362-0.19509-23.294-2.6004-25.699-1.4302-1.4302-9.0955-2.6179-9.0955-2.6179v-20.358s7.6653-1.1877 9.0955-2.6179c2.4053-2.4053 2.194-4.3377 2.6004-25.699 0.30026-14.888-4.2397-37.314 28.23-38.011z"/>
  </g>
 </g>
</svg>
